<?xml version="1.0" standalone="no"?><!DOCTYPE svg PUBLIC "-//W3C//DTD SVG 1.1//EN" "http://www.w3.org/Graphics/SVG/1.1/DTD/svg11.dtd"><svg t="1717729665236" class="icon" viewBox="0 0 1024 1024" version="1.1" xmlns="http://www.w3.org/2000/svg" p-id="12787" xmlns:xlink="http://www.w3.org/1999/xlink" width="14" height="14"><path d="M696.32 108.544c-10.24 0-18.944 4.608-26.112 13.824-19.968 31.232-28.672 65.024-27.648 101.376L444.928 379.904C411.136 369.152 376.832 363.52 342.016 363.52c-37.376 0-73.728 6.144-108.544 18.432-35.328 12.288-68.096 30.72-98.816 55.296-7.68 6.144-11.264 13.824-11.776 23.04-0.512 9.216 2.56 16.896 9.216 24.064l189.44 189.952-205.312 205.312c-6.144 6.144-9.216 13.312-9.216 20.992 0 8.192 3.072 14.848 9.216 20.992 6.144 6.144 13.312 9.216 20.992 9.216 8.192 0 14.848-3.072 20.992-9.216L363.52 716.288l189.44 189.952c6.144 6.144 13.824 9.216 23.04 9.216s16.896-3.584 24.064-11.776c36.352-45.056 58.88-95.744 68.608-150.016 9.216-55.296 5.632-108.544-11.264-161.28l156.16-197.632h5.632c34.304 0 66.56-9.216 96.256-28.672 8.192-5.632 12.288-12.8 13.312-22.016 1.024-9.216-2.048-17.408-8.704-25.088l-201.728-201.728c-6.656-6.144-13.824-8.704-22.016-8.704z m138.24 218.624c-4.608 0.512-9.728 1.024-15.36 1.024l-35.84-1.024-199.68 250.88 10.752 33.792c13.824 42.496 16.384 85.504 9.216 129.536-5.632 31.232-16.384 60.928-32.768 88.576l-362.496-363.52c14.848-8.704 30.208-15.872 47.104-22.016 28.16-9.216 57.344-13.824 87.552-13.824 28.16 0 55.808 4.096 82.944 12.8l33.792 10.752 250.88-199.68-1.024-32.768c-0.512-6.144-0.512-12.288 1.024-18.432L834.56 327.168z" p-id="12788" fill="#d9d9d9"></path></svg>