<?xml version="1.0" standalone="no"?><!DOCTYPE svg PUBLIC "-//W3C//DTD SVG 1.1//EN" "http://www.w3.org/Graphics/SVG/1.1/DTD/svg11.dtd"><svg t="1718352137460" class="icon" viewBox="0 0 1024 1024" version="1.1" xmlns="http://www.w3.org/2000/svg" p-id="1714" xmlns:xlink="http://www.w3.org/1999/xlink" width="14" height="14"><path d="M384 426.666667a85.333333 85.333333 0 1 0 0-170.666667 85.333333 85.333333 0 0 0 0 170.666667z m0 64a149.333333 149.333333 0 1 1 0-298.666667 149.333333 149.333333 0 0 1 0 298.666667zM149.333333 768h448v-21.333333c0-59.797333-43.946667-128-96-128h-256C193.28 618.666667 149.333333 686.869333 149.333333 746.666667v21.333333z m96-213.333333h256c88.362667 0 160 97.749333 160 192v85.333333H85.333333v-85.333333c0-94.250667 71.637333-192 160-192z m461.397334 106.666666a266.453333 266.453333 0 0 0-36.778667-64h132.416C877.653333 597.333333 938.666667 682.346667 938.666667 760.896V832H725.333333v-64h149.333334v-7.104C874.666667 717.098667 841.685333 661.333333 802.368 661.333333h-95.637333zM704 490.666667a64 64 0 1 0 0-128 64 64 0 0 0 0 128z m0 64a128 128 0 1 1 0-256 128 128 0 0 1 0 256z" fill="#d9d9d9" p-id="1715"></path></svg>