<?xml version="1.0" standalone="no"?><!DOCTYPE svg PUBLIC "-//W3C//DTD SVG 1.1//EN" "http://www.w3.org/Graphics/SVG/1.1/DTD/svg11.dtd"><svg t="1717730539725" class="icon" viewBox="0 0 1024 1024" version="1.1" xmlns="http://www.w3.org/2000/svg" p-id="16134" xmlns:xlink="http://www.w3.org/1999/xlink" width="14" height="14"><path d="M511.016091 958.427562c-248.097518 0-449.210955-201.125717-449.210955-449.210955 0-248.090355 201.11446-449.210955 449.210955-449.210955 248.086262 0 449.210955 201.121624 449.210955 449.210955C960.227046 757.301845 759.101329 958.427562 511.016091 958.427562zM735.620545 609.037057c0 0-10.516518-65.36266-138.875954-91.299379 23.941272-27.281343 39.042201-65.606207 39.042201-108.35073 0-82.695421-55.865355-149.737326-124.771725-149.737326-68.917626 0-124.781958 67.041906-124.781958 149.737326 0 42.744523 15.10093 81.069387 39.042201 108.35073-128.358413 25.936719-138.866744 91.299379-138.866744 91.299379l0 49.91176c0 27.560706 47.302329 74.874291 74.872245 74.874291l299.467489 0c27.571962 0 74.871221-47.313585 74.871221-74.874291L735.619522 609.037057zM635.787816 683.900092l-249.553683 0c-13.787004 0-49.910737-11.166317-49.910737-24.951275l0-24.950252 0-24.962531c32.067346-29.482475 95.095845-49.909713 174.693718-49.909713 79.598896 0 142.626371 20.428262 174.693718 49.909713l0 24.962531 0 24.950252C685.709809 672.733775 649.573797 683.900092 635.787816 683.900092zM511.016091 509.211491c-41.35692 0-74.871221-44.692898-74.871221-99.824543 0-55.129598 33.514301-99.82659 74.871221-99.82659 41.345664 0 74.860988 44.696991 74.860988 99.82659C585.877079 464.519616 552.361755 509.211491 511.016091 509.211491z" fill="#d9d9d9" p-id="16135"></path></svg>