<?xml version="1.0" standalone="no"?><!DOCTYPE svg PUBLIC "-//W3C//DTD SVG 1.1//EN" "http://www.w3.org/Graphics/SVG/1.1/DTD/svg11.dtd"><svg t="1718353216856" class="icon" viewBox="0 0 1024 1024" version="1.1" xmlns="http://www.w3.org/2000/svg" p-id="17313" xmlns:xlink="http://www.w3.org/1999/xlink" width="14" height="14"><path d="M426.666667 324.266667h170.666666c10.24 0 17.066667-6.826667 17.066667-17.066667V136.533333c0-10.24-6.826667-17.066667-17.066667-17.066666h-170.666666c-10.24 0-17.066667 6.826667-17.066667 17.066666v170.666667c0 10.24 6.826667 17.066667 17.066667 17.066667zM409.6 563.2c0-58.026667-44.373333-102.4-102.4-102.4s-102.4 44.373333-102.4 102.4c0 30.72 13.653333 58.026667 37.546667 78.506667-30.72 6.826667-58.026667 20.48-81.92 40.96 30.72 51.2 85.333333 85.333333 146.773333 85.333333s116.053333-34.133333 146.773333-85.333333c-23.893333-20.48-51.2-34.133333-81.92-40.96 23.893333-20.48 37.546667-47.786667 37.546667-78.506667z" fill="#d9d9d9" p-id="17314"></path><path d="M921.6 221.866667h-256c-10.24 0-17.066667 6.826667-17.066667 17.066666v68.266667c0 27.306667-23.893333 51.2-51.2 51.2h-170.666666c-27.306667 0-51.2-23.893333-51.2-51.2V238.933333c0-10.24-6.826667-17.066667-17.066667-17.066666H102.4c-58.026667 0-102.4 44.373333-102.4 102.4v477.866666c0 58.026667 44.373333 102.4 102.4 102.4h819.2c58.026667 0 102.4-44.373333 102.4-102.4v-477.866666c0-58.026667-44.373333-102.4-102.4-102.4z m-614.4 580.266666c-112.64 0-204.8-92.16-204.8-204.8s92.16-204.8 204.8-204.8 204.8 92.16 204.8 204.8-92.16 204.8-204.8 204.8z m597.333333-102.4h-307.2c-10.24 0-17.066667-6.826667-17.066666-17.066666s6.826667-17.066667 17.066666-17.066667h307.2c10.24 0 17.066667 6.826667 17.066667 17.066667s-6.826667 17.066667-17.066667 17.066666z m0-102.4h-307.2c-10.24 0-17.066667-6.826667-17.066666-17.066666s6.826667-17.066667 17.066666-17.066667h307.2c10.24 0 17.066667 6.826667 17.066667 17.066667s-6.826667 17.066667-17.066667 17.066666z m0-102.4h-307.2c-10.24 0-17.066667-6.826667-17.066666-17.066666s6.826667-17.066667 17.066666-17.066667h307.2c10.24 0 17.066667 6.826667 17.066667 17.066667s-6.826667 17.066667-17.066667 17.066666z" fill="#d9d9d9" p-id="17315"></path></svg>