<?xml version="1.0" standalone="no"?><!DOCTYPE svg PUBLIC "-//W3C//DTD SVG 1.1//EN" "http://www.w3.org/Graphics/SVG/1.1/DTD/svg11.dtd"><svg t="1717730719869" class="icon" viewBox="0 0 1024 1024" version="1.1" xmlns="http://www.w3.org/2000/svg" p-id="21241" xmlns:xlink="http://www.w3.org/1999/xlink" width="14" height="14"><path d="M110.08 928.48a14.336 14.336 0 0 1-14.4-14.4V133.92a38.112 38.112 0 0 1 37.76-38.08h756.8A38.112 38.112 0 0 1 928 133.92v780.16a14.336 14.336 0 0 1-14.4 14.4H110.08z m424.32-582.4l1.92 538.24 323.2-2.24a18.56 18.56 0 0 0 18.56-18.56v-517.76z m-392.96 0.32l1.6 536.32 344.96-2.24-2.24-534.72z m0.32-204.48l1.6 160.96 716.16-2.24a18.56 18.56 0 0 0 18.56-18.56v-140.48z m454.72 599.36a21.44 21.44 0 0 1-0.32-42.88h226.24a21.6 21.6 0 0 1 21.12 21.44 21.184 21.184 0 0 1-21.12 21.44h-225.92z m-394.88 0a21.44 21.44 0 1 1 0-42.88h225.92a21.44 21.44 0 0 1 0 42.88H201.6z m394.88-143.36a21.44 21.44 0 0 1-21.44-21.44 21.792 21.792 0 0 1 21.12-21.44h226.24a21.792 21.792 0 0 1 21.12 21.44 21.376 21.376 0 0 1-21.12 21.44h-225.92z m-394.88 0a21.44 21.44 0 1 1 0-42.88h225.92a21.44 21.44 0 0 1 0 42.88H201.6z m394.56-143.36a21.28 21.28 0 0 1 0-42.56h226.24a21.28 21.28 0 0 1 0 42.56h-226.24z m-394.56 0a21.28 21.28 0 1 1 0-42.56h225.92a21.28 21.28 0 1 1 0 42.56H201.6z m556.48-206.72a10.4 10.4 0 0 1-8-3.52l-31.04-35.2a9.152 9.152 0 0 1-2.56-7.04 10.144 10.144 0 0 1 2.88-7.36 10.4 10.4 0 0 1 7.68-3.2h62.08a11.168 11.168 0 0 1 7.04 2.56 10.752 10.752 0 0 1 3.52 7.36 9.6 9.6 0 0 1-2.56 7.68l-31.04 35.2a12.8 12.8 0 0 1-8 3.52zM201.6 242.4a21.28 21.28 0 1 1 0-42.56h260.8a21.376 21.376 0 0 1 21.44 21.12 21.664 21.664 0 0 1-21.44 21.44H201.6z" fill="#d9d9d9" p-id="21242"></path></svg>