<?xml version="1.0" standalone="no"?><!DOCTYPE svg PUBLIC "-//W3C//DTD SVG 1.1//EN" "http://www.w3.org/Graphics/SVG/1.1/DTD/svg11.dtd"><svg t="1718353299327" class="icon" viewBox="0 0 1024 1024" version="1.1" xmlns="http://www.w3.org/2000/svg" p-id="20371" xmlns:xlink="http://www.w3.org/1999/xlink" width="14" height="14"><path d="M864 128H160c-35.2 0-64 28.8-64 64v640c0 35.2 28.8 64 64 64h704c35.2 0 64-28.8 64-64V192c0-35.2-28.8-64-64-64z m0 672c0 16-12.8 32-32 32H192c-19.2 0-32-16-32-32V416h704v384z m0-448H160V224c0-16 12.8-32 32-32h640c19.2 0 32 16 32 32v128z" fill="#d9d9d9" p-id="20372"></path></svg>