<?xml version="1.0" standalone="no"?><!DOCTYPE svg PUBLIC "-//W3C//DTD SVG 1.1//EN" "http://www.w3.org/Graphics/SVG/1.1/DTD/svg11.dtd"><svg t="1717743810323" class="icon" viewBox="0 0 1024 1024" version="1.1" xmlns="http://www.w3.org/2000/svg" p-id="36831" xmlns:xlink="http://www.w3.org/1999/xlink" width="14" height="14"><path d="M896 64a128 128 0 0 1 128 128v640a128 128 0 0 1-128 128H128a128 128 0 0 1-128-128V192a128 128 0 0 1 128-128h768zM320 128H128a64 64 0 0 0-63.552 56.512L64 192v640a64 64 0 0 0 56.512 63.552L128 896h192V128z m640 256H384v512h512a64 64 0 0 0 63.552-56.512L960 832V384z m-128 96a32 32 0 0 1 32 32v256a32 32 0 0 1-32 32H512a32 32 0 0 1-32-32V512a32 32 0 0 1 32-32h320zM256 256a32 32 0 0 1 32 32v448a32 32 0 0 1-32 32H128a32 32 0 0 1-32-32v-448A32 32 0 0 1 128 256h128z m544.448 275.264H542.784a12.8 12.8 0 0 0-12.352 9.408L529.92 544v189.12a12.8 12.8 0 0 0 9.344 12.352l3.456 0.448h257.664a12.8 12.8 0 0 0 12.352-9.408l0.448-3.392V544a12.8 12.8 0 0 0-12.8-12.8zM211.2 320h-43.52a12.8 12.8 0 0 0-12.288 9.408L154.88 332.8v358.4a12.8 12.8 0 0 0 9.344 12.352l3.456 0.448H211.2a12.8 12.8 0 0 0 12.352-9.408L224 691.2V332.8a12.8 12.8 0 0 0-12.8-12.8zM896 128H384v192h576V192a64 64 0 0 0-64-64z m-96 32a32 32 0 0 1 32 32v64a32 32 0 0 1-32 32h-256A32 32 0 0 1 512 256V192a32 32 0 0 1 32-32h256z m-44.8 42.752H588.8a12.8 12.8 0 0 0-12.352 9.344L576 215.552v14.72a12.8 12.8 0 0 0 9.408 12.352l3.392 0.448h166.4a12.8 12.8 0 0 0 12.352-9.344L768 230.272v-14.72a12.8 12.8 0 0 0-12.8-12.8z" fill="#d9d9d9" p-id="36832"></path></svg>