<?xml version="1.0" standalone="no"?><!DOCTYPE svg PUBLIC "-//W3C//DTD SVG 1.1//EN" "http://www.w3.org/Graphics/SVG/1.1/DTD/svg11.dtd"><svg t="1717730878635" class="icon" viewBox="0 0 3072 1024" version="1.1" xmlns="http://www.w3.org/2000/svg" p-id="25229" xmlns:xlink="http://www.w3.org/1999/xlink" width="42" height="14"><path d="M2752 32H256A160 160 0 0 0 96 192v640A160 160 0 0 0 256 992h2496a160 160 0 0 0 160-160V192A160 160 0 0 0 2752 32z m-2496 64h2496A96 96 0 0 1 2848 192v640a96 96 0 0 1-96 96H256A96 96 0 0 1 160 832V192A96 96 0 0 1 256 96z" fill="#d9d9d9" p-id="25230"></path><path d="M355.584 298.688v462.208h568.832V298.688H355.584z m533.312 430.208H391.04V330.688h497.792v398.208z" fill="#d9d9d9" p-id="25231"></path><path d="M746.688 618.688h71.04v71.04h-71.04v-71.04z m0-106.688h71.04v71.104h-71.04V512zM604.416 618.688h71.168v71.04H604.416v-71.04z m0-106.688h71.168v71.104H604.416V512zM462.208 618.688h71.104v71.04h-71.04v-71.04z m0-106.688h71.104v71.104h-71.04V512z m-71.04-71.104h497.728v35.52H391.04V440.96z m355.52-177.792h35.52v106.688h-35.52V263.04z m-248.96 0h35.584v106.688h-35.52V263.04z" fill="#d9d9d9" p-id="25232"></path></svg>