<?xml version="1.0" standalone="no"?><!DOCTYPE svg PUBLIC "-//W3C//DTD SVG 1.1//EN" "http://www.w3.org/Graphics/SVG/1.1/DTD/svg11.dtd"><svg t="1717743196846" class="icon" viewBox="0 0 1024 1024" version="1.1" xmlns="http://www.w3.org/2000/svg" p-id="31888" xmlns:xlink="http://www.w3.org/1999/xlink" width="14" height="14"><path d="M312.5248 636.1088a29.9008 29.9008 0 0 0 21.2992-8.6016l376.4224-376.4224a30.3104 30.3104 0 0 0-43.008-40.96L290.816 584.0896a30.72 30.72 0 0 0 0 43.4176 31.5392 31.5392 0 0 0 21.7088 8.6016zM629.1456 453.4272a90.112 90.112 0 1 0 90.112 90.112 90.5216 90.5216 0 0 0-90.112-90.112z m0 118.784a28.672 28.672 0 1 1 28.672-28.672 28.672 28.672 0 0 1-28.672 29.9008zM373.1456 381.7472a90.112 90.112 0 1 0-90.112-90.112 89.7024 89.7024 0 0 0 90.112 90.112z m0-118.784a28.672 28.672 0 0 1 28.672 28.672 29.0816 29.0816 0 1 1-28.672-28.672zM766.7712 763.4944H204.8a65.9456 65.9456 0 0 0 6.9632 131.4816h555.008a65.9456 65.9456 0 0 0 0-131.8912z m0 90.9312h-262.144a63.0784 63.0784 0 0 0 4.9152-24.9856 64.7168 64.7168 0 0 0-4.9152-24.9856h262.144a24.9856 24.9856 0 0 1 24.9856 24.9856 24.9856 24.9856 0 0 1-24.9856 24.9856z" fill="#d9d9d9" p-id="31889"></path></svg>