<?xml version="1.0" standalone="no"?><!DOCTYPE svg PUBLIC "-//W3C//DTD SVG 1.1//EN" "http://www.w3.org/Graphics/SVG/1.1/DTD/svg11.dtd"><svg t="1718353402212" class="icon" viewBox="0 0 1706 1024" version="1.1" xmlns="http://www.w3.org/2000/svg" p-id="23394" xmlns:xlink="http://www.w3.org/1999/xlink" width="23.32421875" height="14"><path d="M1176.50680606 206.4796294H458.53393514a48.37405887 48.37405887 0 0 0-48.37405887 48.37405887v5.09200598a48.37405887 48.37405887 0 0 0 48.37405887 48.37405887h717.97287092A48.37405887 48.37405887 0 0 0 1224.88086493 259.94569425v-5.09200598A48.37405887 48.37405887 0 0 0 1176.50680606 206.4796294z m0 254.60030903H458.53393514a48.37405887 48.37405887 0 0 0-48.37405887 48.37405828v5.09200658a48.37405887 48.37405887 0 0 0 48.37405887 48.37405828h717.97287092A48.37405887 48.37405887 0 0 0 1224.88086493 514.54600329v-5.09200658A48.37405887 48.37405887 0 0 0 1176.50680606 461.07993843z m0 254.60030844H458.53393514a48.37405887 48.37405887 0 0 0-48.37405887 48.37405888v5.09200597a48.37405887 48.37405887 0 0 0 48.37405887 48.37405888h717.97287092A48.37405887 48.37405887 0 0 0 1224.88086493 769.14631172v-5.09200597A48.37405887 48.37405887 0 0 0 1176.50680606 715.68024687zM257.39969097 206.4796294a50.92006157 50.92006157 0 1 0 50.92006216 50.92006157A50.92006157 50.92006157 0 0 0 257.39969097 206.4796294z m0 254.60030903a50.92006157 50.92006157 0 1 0 50.92006216 50.92006157A50.92006157 50.92006157 0 0 0 257.39969097 461.07993843z m0 254.60030844a50.92006157 50.92006157 0 1 0 50.92006216 50.92006216A50.92006157 50.92006157 0 0 0 257.39969097 715.68024687z" p-id="23395" fill="#d9d9d9"></path></svg>