<?xml version="1.0" standalone="no"?><!DOCTYPE svg PUBLIC "-//W3C//DTD SVG 1.1//EN" "http://www.w3.org/Graphics/SVG/1.1/DTD/svg11.dtd"><svg t="1717731046895" class="icon" viewBox="0 0 1024 1024" version="1.1" xmlns="http://www.w3.org/2000/svg" p-id="28245" xmlns:xlink="http://www.w3.org/1999/xlink" width="14" height="14"><path d="M112 448h800a48 48 0 1 1 0 96H112a48 48 0 0 1 0-96z m112 320h64a32 32 0 1 1 0 64h-64a32 32 0 1 1 0-64z m0-576h64a32 32 0 0 1 0 64h-64a32 32 0 0 1 0-64z m256 576h64a32 32 0 1 1 0 64h-64a32 32 0 1 1 0-64z m0-576h64a32 32 0 0 1 0 64h-64a32 32 0 0 1 0-64z m256 576h64a32 32 0 1 1 0 64h-64a32 32 0 1 1 0-64z m0-576h64a32 32 0 1 1 0 64h-64a32 32 0 1 1 0-64z" fill="#d9d9d9" p-id="28246"></path></svg>