<?xml version="1.0" standalone="no"?><!DOCTYPE svg PUBLIC "-//W3C//DTD SVG 1.1//EN" "http://www.w3.org/Graphics/SVG/1.1/DTD/svg11.dtd"><svg t="1717731161190" class="icon" viewBox="0 0 1024 1024" version="1.1" xmlns="http://www.w3.org/2000/svg" p-id="31865" xmlns:xlink="http://www.w3.org/1999/xlink" width="14" height="14"><path d="M917.443765 768.120471c0 69.270588-56.139294 125.470118-125.470118 125.470117H290.032941a125.470118 125.470118 0 0 1-125.530353-125.470117V205.884235c0-69.270588 56.199529-125.470118 125.530353-125.470117h501.940706c69.270588 0 125.470118 56.199529 125.470118 125.470117z m-334.72753 35.117176v-632.470588h-292.743529c-17.468235 0-31.924706 12.769882-34.635294 29.455059l-0.481883 5.662117v562.236236c0 19.395765 15.781647 35.117176 35.177412 35.117176h292.74353z m-41.682823-231.544471l-42.586353 42.586353-127.216941-127.216941 127.216941-127.337412 42.586353 42.586353-84.690824 84.690824L541.033412 571.632941z m286.117647 196.367059V205.944471a35.117176 35.117176 0 0 0-35.177412-35.117177h-118.904471v632.470588h118.904471c17.468235 0 31.924706-12.709647 34.695529-29.455058l0.421648-5.662118z" p-id="31866" fill="#d9d9d9"></path></svg>