<?xml version="1.0" standalone="no"?><!DOCTYPE svg PUBLIC "-//W3C//DTD SVG 1.1//EN" "http://www.w3.org/Graphics/SVG/1.1/DTD/svg11.dtd"><svg t="1718353481359" class="icon" viewBox="0 0 1024 1024" version="1.1" xmlns="http://www.w3.org/2000/svg" p-id="27780" xmlns:xlink="http://www.w3.org/1999/xlink" width="14" height="14"><path d="M904 352a8.006 8.006 0 0 1 8 7.75V913H120a8.006 8.006 0 0 1-8-7.75V360a8.006 8.006 0 0 1 7.75-8H904z m-64 72H184v417h656V424zM724.84 137.902l75.66 75.66 75.66-75.66a8 8 0 0 1 11.314 0l33.941 33.941a8 8 0 0 1 0 11.314L803.328 301.244a4 4 0 0 1-5.656 0L679.585 183.157a8 8 0 0 1 0-11.314l33.94-33.941a8 8 0 0 1 11.315 0zM558 193a8 8 0 0 1 8 8v64a8 8 0 0 1-8 8H120a8 8 0 0 1-8-8v-64a8 8 0 0 1 8-8h438z" fill="#d9d9d9" p-id="27781"></path></svg>