<?xml version="1.0" standalone="no"?><!DOCTYPE svg PUBLIC "-//W3C//DTD SVG 1.1//EN" "http://www.w3.org/Graphics/SVG/1.1/DTD/svg11.dtd"><svg t="1717731293473" class="icon" viewBox="0 0 1024 1024" version="1.1" xmlns="http://www.w3.org/2000/svg" p-id="34697" xmlns:xlink="http://www.w3.org/1999/xlink" width="14" height="14"><path d="M795.648 800.256h-103.936c-21.504 0-38.4-17.408-38.4-38.4V445.44c0-21.504 17.408-38.4 38.4-38.4h103.936c21.504 0 38.4 17.408 38.4 38.4v315.904c0.512 21.504-16.896 38.912-38.4 38.912z" p-id="34698" fill="#d9d9d9"></path><path d="M122.368 165.888h778.24c-9.216 0-16.384-7.168-16.384-16.384v713.728c0-9.216 7.168-16.384 16.384-16.384h-778.24c9.216 0 16.384 7.168 16.384 16.384V150.016c0 8.192-6.656 15.872-16.384 15.872z m-32.768 684.544c0 26.112 20.992 47.104 47.104 47.104h750.08c26.112 0 47.104-20.992 47.104-47.104V162.304c0-26.112-20.992-47.104-47.104-47.104H136.704c-26.112 0-47.104 20.992-47.104 47.104v688.128z" p-id="34699" fill="#d9d9d9"></path></svg>