<?xml version="1.0" standalone="no"?><!DOCTYPE svg PUBLIC "-//W3C//DTD SVG 1.1//EN" "http://www.w3.org/Graphics/SVG/1.1/DTD/svg11.dtd"><svg t="1718353690455" class="icon" viewBox="0 0 1433 1024" version="1.1" xmlns="http://www.w3.org/2000/svg" p-id="31007" xmlns:xlink="http://www.w3.org/1999/xlink" width="19.591796875" height="14"><path d="M136.533333 716.8V307.2a68.266667 68.266667 0 0 1 68.266667-68.266667h1024a68.266667 68.266667 0 0 1 68.266667 68.266667v409.6a68.266667 68.266667 0 0 1-68.266667 68.266667H204.8a68.266667 68.266667 0 0 1-68.266667-68.266667z m51.2 0q0 7.0656 4.983467 12.0832 5.0176 4.983467 12.0832 4.983467h1024q7.0656 0 12.049067-4.983467 5.0176-5.0176 5.0176-12.0832V307.2q0-7.0656-5.0176-12.0832Q1235.8656 290.133333 1228.8 290.133333H204.8q-7.0656 0-12.0832 4.983467Q187.733333 300.1344 187.733333 307.2v409.6z" fill="#d9d9d9" p-id="31008"></path><path d="M423.5264 458.478933l-0.2048 3.4816-1.877333 31.5392-0.375467 6.212267 35.054933-14.199467 2.048-0.8192 8.635734-3.515733 23.074133-9.3184 0.955733 2.833067 3.140267 9.352533 6.826667 20.206933 0.955733 2.833067-17.1008 4.642133-6.929067 1.877334-8.977066 2.423466-2.730667 0.750934-30.344533 8.192-6.314667 1.7408-0.1024 0.034133 0.034133 0.034133 4.164267 4.744534 20.992 23.7568 1.7408 1.9456 7.2704 8.260266 15.36 17.373867-2.218667 1.7408-24.610133 19.456-2.2528 1.7408-13.243733-19.285333-9.1136-13.277867-17.066667-24.917333-3.584-5.188267-3.754667 5.4272-17.066666 24.576-3.106134 4.539733-5.666133 8.192-13.824 19.933867-2.2528-1.774933-24.576-19.387734-2.2528-1.774933 16.008533-18.090667 6.621867-7.509333 1.7408-2.013867 21.0944-23.8592 4.061867-4.608 0.034133-0.034133h-0.1024l-5.973333-1.672533-30.6176-8.328534-2.389334-0.682666-8.704-2.3552-24.302933-6.621867 0.955733-2.833067 9.966934-29.559466 0.955733-2.833067 23.381333 9.454933 8.328534 3.3792 2.048 0.8192 29.661866 12.014934 5.393067 2.184533-0.341333-6.109867-1.911467-31.6416-0.2048-3.4816-0.3072-4.949333-1.7408-29.184h37.6832l-1.7408 29.184-0.3072 4.949333z m143.872 98.747734l1.7408-1.979734 21.0944-23.8592 4.061867-4.608 0.034133-0.034133h-0.1024l-5.973333-1.672533-30.6176-8.328534-2.389334-0.682666-8.704-2.3552-7.168-1.9456-17.134933-4.676267 0.955733-2.833067 6.826667-20.206933 3.140267-9.352533 0.955733-2.833067 23.381333 9.454933 8.328534 3.3792 2.048 0.8192 29.661866 12.014934 5.393067 2.184533-0.341333-6.109867-1.911467-31.6416-0.2048-3.4816-0.3072-4.949333-1.7408-29.184h37.6832l-1.7408 29.184-0.3072 4.949333-0.2048 3.4816-1.877333 31.5392-0.375467 6.212267 5.393067-2.184533 29.661866-12.014934 2.048-0.8192 8.635734-3.515733 23.074133-9.3184 0.955733 2.833067 9.966934 29.559466 0.955733 2.833067-24.029867 6.485333-8.977066 2.4576-2.730667 0.750934-30.344533 8.192-6.314667 1.7408-0.1024 0.034133 0.034133 0.034133 4.164267 4.744534 20.992 23.7568 1.7408 1.9456 7.2704 8.260266 15.36 17.373867-2.218667 1.7408-24.610133 19.456-2.2528 1.7408-13.243733-19.285333-6.144-8.9088-2.9696-4.369067-17.066667-24.917333-3.584-5.188267-3.754667 5.4272-17.066666 24.576-3.106134 4.539733-5.666133 8.192-13.824 19.933867-2.2528-1.774933-24.576-19.387734-2.2528-1.774933 16.008533-18.090667 6.621867-7.509333z" fill="#d9d9d9" p-id="31009"></path></svg>