<?xml version="1.0" standalone="no"?><!DOCTYPE svg PUBLIC "-//W3C//DTD SVG 1.1//EN" "http://www.w3.org/Graphics/SVG/1.1/DTD/svg11.dtd"><svg t="1718353627406" class="icon" viewBox="0 0 1024 1024" version="1.1" xmlns="http://www.w3.org/2000/svg" p-id="29931" xmlns:xlink="http://www.w3.org/1999/xlink" width="14" height="14"><path d="M943.146667 336H85.333333V77.226667h857.813334zM128 293.76h772.906667V119.68H128z" fill="#d9d9d9" p-id="29932"></path><path d="M168.32 183.04h47.36v47.36H168.32zM257.066667 183.04h47.36v47.36h-47.36zM345.6 183.04h47.36v47.36H345.6zM943.573333 640H85.333333V380.16h858.24zM128 597.333333h773.12v-174.72H128z" fill="#d9d9d9" p-id="29933"></path><path d="M168.746667 485.973333h47.36V533.333333H168.746667zM257.28 485.973333h47.36V533.333333h-47.36zM346.026667 485.973333h47.36V533.333333h-47.36zM943.146667 941.866667H85.333333V682.666667h857.813334zM128 899.626667h772.906667V725.333333H128z" fill="#d9d9d9" p-id="29934"></path><path d="M168.32 788.906667h47.36v47.36H168.32zM257.066667 788.906667h47.36v47.36h-47.36zM345.6 788.906667h47.36v47.36H345.6z" fill="#d9d9d9" p-id="29935"></path></svg>