<?xml version="1.0" standalone="no"?><!DOCTYPE svg PUBLIC "-//W3C//DTD SVG 1.1//EN" "http://www.w3.org/Graphics/SVG/1.1/DTD/svg11.dtd"><svg t="1717731423282" class="icon" viewBox="0 0 1118 1024" version="1.1" xmlns="http://www.w3.org/2000/svg" p-id="36831" xmlns:xlink="http://www.w3.org/1999/xlink" width="15.28515625" height="14"><path d="M797.602909 489.937455c0-104.541091-51.851636-170.449455-134.050909-170.449455-80.989091 0-134.144 69.073455-134.144 174.08 0 105.472 53.620364 173.614545 133.678545 173.614545 81.826909 0 134.516364-69.538909 134.516364-177.24509m320.884364-44.125091c0 166.353455-71.307636 280.482909-188.136728 280.482909-68.701091 0-118.225455-38.632727-126.417454-104.075637h-3.723636c-24.389818 64.512-78.196364 103.610182-146.245819 103.610182-113.198545 0-190.464-95.418182-190.464-232.261818 0-136.378182 77.730909-231.330909 188.974546-231.330909 66.001455 0 121.018182 35.467636 142.429091 91.787636h3.630545v-59.578182c0-19.549091 11.357091-32.209455 29.975273-32.209454s29.509818 12.660364 29.509818 32.209454v291.84c0 54.551273 30.068364 86.388364 80.989091 86.388364 74.938182 0 120.832-88.622545 120.832-224.535273 0-225.000727-169.053091-357.282909-379.531636-357.282909-66.839273 0-131.816727 12.288-200.424728 49.058909a229.934545 229.934545 0 0 0-27.275636-50.920727c79.127273-43.194182 158.161455-55.854545 228.631273-55.854545 254.510545 0 437.248 164.026182 437.248 412.672m-890.414546 69.166545h7.261091c18.618182 0 36.770909-2.792727 53.992727-7.726545C302.731636 756.270545 471.319273 888.087273 692.596364 888.087273c61.812364 0 111.709091-7.726545 160.954181-20.386909a64.977455 64.977455 0 0 1 16.756364-2.792728c14.149818 0 25.041455 10.519273 25.041455 24.576 0 13.591273-5.585455 25.879273-33.233455 34.536728-43.194182 12.288-107.706182 22.248727-180.410182 22.248727-244.549818 0-438.644364-153.6-453.632-431.290182m32.581818-152.296727V269.963636h86.016a24.110545 24.110545 0 1 0 0-48.221091H260.654545v-92.718545c0-14.522182-11.357091-24.110545-25.413818-24.110545-14.056727 0-25.413818 9.588364-25.413818 24.110545v92.718545h-86.388364a23.924364 23.924364 0 0 0-24.203636 24.110546c0 13.591273 10.984727 24.110545 24.203636 24.110545h86.388364v92.718546c0 14.522182 11.357091 24.482909 25.413818 24.482909 13.963636 0 25.413818-9.960727 25.413818-24.482909M19.921455 245.853091A216.343273 216.343273 0 0 1 235.333818 30.813091a216.622545 216.622545 0 0 1 215.412364 215.04 217.367273 217.367273 0 0 1-215.412364 215.412364A216.157091 216.157091 0 0 1 19.921455 245.853091" fill="#d9d9d9" p-id="36832"></path></svg>