<?xml version="1.0" standalone="no"?><!DOCTYPE svg PUBLIC "-//W3C//DTD SVG 1.1//EN" "http://www.w3.org/Graphics/SVG/1.1/DTD/svg11.dtd"><svg t="1718354383773" class="icon" viewBox="0 0 1024 1024" version="1.1" xmlns="http://www.w3.org/2000/svg" p-id="42203" xmlns:xlink="http://www.w3.org/1999/xlink" width="14" height="14"><path d="M832 224a32 32 0 0 1 32 32v170.656a32 32 0 0 1-32 32H192a32 32 0 0 1-32-32V256a32 32 0 0 1 32-32h640z m-12.8 44.8H204.8v145.056h614.4V268.8z" fill="#d9d9d9" p-id="42204"></path><path d="M752 310.4a25.6 25.6 0 0 1 3.2 51.008l-3.2 0.192H576a25.6 25.6 0 0 1-3.2-51.008l3.2-0.192h176z" fill="#d9d9d9" p-id="42205"></path><path d="M832 557.728a32 32 0 0 1 32 32v170.656a32 32 0 0 1-32 32H192a32 32 0 0 1-32-32V589.728a32 32 0 0 1 32-32h640z m-12.8 44.768H204.8v145.056h614.4V602.496z" fill="#d9d9d9" p-id="42206"></path><path d="M739.36 656.768a25.6 25.6 0 1 1 0 51.2h-172.8a25.6 25.6 0 1 1 0-51.2h172.8z" fill="#d9d9d9" p-id="42207"></path><path d="M470.4 626.688h-0.032q25.152 0 25.152 25.152v50.272q0 25.152-25.152 25.152h0.032q-25.152 0-25.152-25.152V651.84q0-25.152 25.152-25.152zM470.784 291.584h-0.032q25.152 0 25.152 25.152v50.272q0 25.152-25.152 25.152h0.032q-25.152 0-25.152-25.152v-50.272q0-25.152 25.152-25.152z" fill="#d9d9d9" p-id="42208"></path></svg>