<?xml version="1.0" standalone="no"?><!DOCTYPE svg PUBLIC "-//W3C//DTD SVG 1.1//EN" "http://www.w3.org/Graphics/SVG/1.1/DTD/svg11.dtd"><svg t="1718353832857" class="icon" viewBox="0 0 1024 1024" version="1.1" xmlns="http://www.w3.org/2000/svg" p-id="38293" xmlns:xlink="http://www.w3.org/1999/xlink" width="14" height="14"><path d="M128 459.52h768c35.2 0 64-28.8 64-64v-192c0-35.2-28.8-64-64-64H128c-35.2 0-64 28.8-64 64v192c0 35.2 28.8 64 64 64z m32-224h704v128h-704v-128zM896 651.52H128c-35.2 0-64 28.8-64 64v192c0 35.2 28.8 64 64 64h768c35.2 0 64-28.8 64-64v-192c0-35.2-28.8-64-64-64z m-32 224h-704v-128h704v128zM960 507.52H64c-26.24 0-48 21.76-48 48s21.76 48 48 48h896c26.24 0 48-21.76 48-48s-21.76-48-48-48z" p-id="38294" fill="#d9d9d9"></path></svg>