<?xml version="1.0" standalone="no"?><!DOCTYPE svg PUBLIC "-//W3C//DTD SVG 1.1//EN" "http://www.w3.org/Graphics/SVG/1.1/DTD/svg11.dtd"><svg t="1717731631145" class="icon" viewBox="0 0 1024 1024" version="1.1" xmlns="http://www.w3.org/2000/svg" p-id="51006" xmlns:xlink="http://www.w3.org/1999/xlink" width="14" height="14"><path d="M800 224c70.692 0 128 57.308 128 128v320c0 70.692-57.308 128-128 128H224c-70.692 0-128-57.308-128-128V352c0-70.692 57.308-128 128-128h576z m64 256H160v192c0 34.993 28.084 63.426 62.942 63.991L224 736h576c34.993 0 63.426-28.084 63.991-62.942L864 672V480z m-448 96c17.673 0 32 14.327 32 32 0 17.673-14.327 32-32 32H288c-17.673 0-32-14.327-32-32 0-17.673 14.327-32 32-32h128z m384-288H224c-34.993 0-63.426 28.084-63.991 62.942L160 352v64h704v-64c0-34.993-28.084-63.426-62.942-63.991L800 288z" fill="#d9d9d9" p-id="51007"></path></svg>