<?xml version="1.0" standalone="no"?><!DOCTYPE svg PUBLIC "-//W3C//DTD SVG 1.1//EN" "http://www.w3.org/Graphics/SVG/1.1/DTD/svg11.dtd"><svg t="1717731700286" class="icon" viewBox="0 0 1024 1024" version="1.1" xmlns="http://www.w3.org/2000/svg" p-id="52935" xmlns:xlink="http://www.w3.org/1999/xlink" width="14" height="14"><path d="M1024 843.264c0 91.648-74.24 166.4-166.4 166.4h-691.2c-92.16 0-166.4-74.24-166.4-166.4V180.736c0-92.16 74.24-166.4 166.4-166.4h691.2c91.648 0 166.4 74.24 166.4 166.4V604.16c0 19.968-16.384 35.84-35.84 35.84-19.968 0-35.84-16.384-35.84-35.84V180.736c0-52.224-41.984-94.208-94.208-94.208h-691.2c-52.224 0-94.208 41.984-94.208 94.208v663.04c0 52.224 41.984 94.208 94.208 94.208h691.2c52.224 0 94.208-41.984 94.208-94.208 0-17.92 14.848-32.768 32.768-32.768h6.656c17.408-0.512 32.256 14.336 32.256 32.256z" fill="#d9d9d9" p-id="52936"></path><path d="M0 241.664h1024v73.728H0z" fill="#d9d9d9" p-id="52937"></path><path d="M829.44 162.304m-36.352 0a36.352 36.352 0 1 0 72.704 0 36.352 36.352 0 1 0-72.704 0Z" fill="#d9d9d9" p-id="52938"></path><path d="M696.32 162.304m-36.352 0a36.352 36.352 0 1 0 72.704 0 36.352 36.352 0 1 0-72.704 0Z" fill="#d9d9d9" p-id="52939"></path></svg>