<?xml version="1.0" standalone="no"?><!DOCTYPE svg PUBLIC "-//W3C//DTD SVG 1.1//EN" "http://www.w3.org/Graphics/SVG/1.1/DTD/svg11.dtd"><svg t="1717731779603" class="icon" viewBox="0 0 1782 1024" version="1.1" xmlns="http://www.w3.org/2000/svg" p-id="63303" xmlns:xlink="http://www.w3.org/1999/xlink" width="24.36328125" height="14"><path d="M143.632424 506.493284h657.685309v45.357608H143.632424zM143.632424 400.658866h1209.536201v45.357608H143.632424zM143.632424 294.824449h1209.536201v45.357607H143.632424z" fill="#d9d9d9" p-id="63304"></path><path d="M143.632424 113.394019h521.612486v75.596012H143.632424z" fill="#d9d9d9" fill-opacity=".5" p-id="63305"></path><path d="M1150.268927 584.810753m4.233377 0l171.104014 0q4.233377 0 4.233377 4.233377l0 84.667534q0 4.233377-4.233377 4.233377l-171.104014 0q-4.233377 0-4.233377-4.233377l0-84.667534q0-4.233377 4.233377-4.233377Z" fill="#d9d9d9" p-id="63306"></path><path d="M1334.519088 148.772953l17.364404-20.698189a0.529172 0.529172 0 0 0-0.400658-0.869354h-5.276602a1.081023 1.081023 0 0 0-0.816437 0.37798l-14.325444 17.07714-14.317885-17.07714a1.058344 1.058344 0 0 0-0.816437-0.37798h-5.276602a0.529172 0.529172 0 0 0-0.400659 0.869354l17.364404 20.698189-17.364404 20.698188a0.529172 0.529172 0 0 0 0.400659 0.861794h5.276602c0.317503 0 0.612328-0.136073 0.816437-0.37798l14.317885-17.069579 14.325444 17.077139a1.058344 1.058344 0 0 0 0.808877 0.37798h5.284162a0.529172 0.529172 0 0 0 0.400658-0.869354l-17.364404-20.698188z" fill="#d9d9d9" opacity=".65" p-id="63307"></path></svg>