<?xml version="1.0" standalone="no"?><!DOCTYPE svg PUBLIC "-//W3C//DTD SVG 1.1//EN" "http://www.w3.org/Graphics/SVG/1.1/DTD/svg11.dtd"><svg t="1717732016414" class="icon" viewBox="0 0 1024 1024" version="1.1" xmlns="http://www.w3.org/2000/svg" p-id="70332" xmlns:xlink="http://www.w3.org/1999/xlink" width="14" height="14"><path d="M648.96 416H489.472L403.2 608h160.32l85.504-192z m-514.56 0h15.04L78.208 574.656A63.744 63.744 0 0 1 70.4 544v-64a64 64 0 0 1 64-64z m165.888 0H187.712L104.768 600.768A63.744 63.744 0 0 0 134.4 608h79.68l86.208-192z m38.272 0H451.2l-86.208 192H252.352l86.208-192z" fill="#d9d9d9" p-id="70333"></path><path d="M60.16 380.16Q32 408.192 32 448v128q0 39.744 28.16 67.84 28.096 28.16 67.84 28.16h768q96 0 96-96V448q0-96-96-96H128q-39.744 0-67.84 28.16zM96 576V448q0-32 32-32h768q32 0 32 32v128q0 32-32 32H128q-32 0-32-32z" fill="#d9d9d9" p-id="70334"></path></svg>