<?xml version="1.0" standalone="no"?><!DOCTYPE svg PUBLIC "-//W3C//DTD SVG 1.1//EN" "http://www.w3.org/Graphics/SVG/1.1/DTD/svg11.dtd"><svg t="1718354533524" class="icon" viewBox="0 0 1024 1024" version="1.1" xmlns="http://www.w3.org/2000/svg" p-id="46185" xmlns:xlink="http://www.w3.org/1999/xlink" width="14" height="14"><path d="M128 632c71.111 0 128 56.889 128 128 0 71.111-56.889 128-128 128C56.889 888 0 831.111 0 760c0-71.111 56.889-128 128-128z m0 32c-53.76 0-96 42.24-96 96s42.24 96 96 96 96-42.24 96-96-42.24-96-96-96z m864 64c17.673 0 32 14.327 32 32 0 17.496-14.042 31.713-31.47 31.996L992 792H356c-17.673 0-32-14.327-32-32 0-17.496 14.042-31.713 31.47-31.996L356 728h636zM128 136c71.111 0 128 56.889 128 128 0 71.111-56.889 128-128 128C56.889 392 0 335.111 0 264c0-71.111 56.889-128 128-128z m0 32c-53.76 0-96 42.24-96 96s42.24 96 96 96 96-42.24 96-96-42.24-96-96-96z m0 32c35.84 0 64 28.16 64 64s-28.16 64-64 64-64-28.16-64-64 28.16-64 64-64z m0 32c-17.92 0-32 14.08-32 32s14.08 32 32 32 32-14.08 32-32-14.08-32-32-32z m864 0c17.673 0 32 14.327 32 32 0 17.496-14.042 31.713-31.47 31.996L992 296H356c-17.673 0-32-14.327-32-32 0-17.496 14.042-31.713 31.47-31.996L356 232h636z" fill="#d9d9d9" p-id="46186"></path></svg>