<?xml version="1.0" standalone="no"?><!DOCTYPE svg PUBLIC "-//W3C//DTD SVG 1.1//EN" "http://www.w3.org/Graphics/SVG/1.1/DTD/svg11.dtd"><svg t="1717732302984" class="icon" viewBox="0 0 1024 1024" version="1.1" xmlns="http://www.w3.org/2000/svg" p-id="81040" xmlns:xlink="http://www.w3.org/1999/xlink" width="14" height="14"><path d="M856.1664 546.59072c12.00128 0 21.74976-9.728 21.74976-21.74976L877.91616 269.6192c0-46.46912-18.08384-90.15296-50.95424-123.00288-32.82944-32.84992-76.53376-50.95424-123.00288-50.95424L314.5728 95.66208c-46.46912 0-90.15296 18.08384-123.00288 50.95424-32.84992 32.84992-50.93376 76.53376-50.93376 123.00288l0 484.7616c0 46.46912 18.08384 90.15296 50.93376 123.00288 32.8704 32.84992 76.55424 50.95424 123.00288 50.95424l389.38624 0c46.44864 0 90.15296-18.08384 123.00288-50.95424 32.84992-32.82944 50.95424-76.53376 50.95424-123.00288l0-73.68704c0-12.00128-9.728-21.74976-21.74976-21.74976s-21.74976 9.728-21.74976 21.74976l0 73.68704c0 34.85696-13.57824 67.62496-38.21568 92.24192-24.63744 24.63744-57.40544 38.21568-92.24192 38.21568L314.5728 884.8384c-34.83648 0-67.60448-13.57824-92.2624-38.21568-24.63744-24.63744-38.1952-57.38496-38.1952-92.24192l0-484.7616c0-34.85696 13.55776-67.62496 38.1952-92.24192 24.63744-24.63744 57.40544-38.21568 92.2624-38.21568l35.18464 0c-8.11008 3.15392-13.90592 10.93632-13.90592 20.15232 0 12.00128 9.728 21.74976 21.74976 21.74976l302.32576 0c12.00128 0 21.74976-9.728 21.74976-21.74976 0-9.23648-5.79584-16.9984-13.90592-20.15232l36.22912 0c34.85696 0 67.62496 13.55776 92.24192 38.21568 24.63744 24.63744 38.21568 57.38496 38.21568 92.24192l0 255.24224C834.41664 536.86272 844.14464 546.59072 856.1664 546.59072z" fill="#d9d9d9" p-id="81041"></path><path d="M351.25248 390.90176l-40.96 0c-11.30496 0-20.48 9.17504-20.48 20.48s9.17504 20.48 20.48 20.48l40.96 0c11.30496 0 20.48-9.17504 20.48-20.48S362.55744 390.90176 351.25248 390.90176z" fill="#d9d9d9" p-id="81042"></path><path d="M721.38752 385.29024l-245.76 0c-11.30496 0-20.48 9.17504-20.48 20.48s9.17504 20.48 20.48 20.48l245.76 0c11.30496 0 20.48-9.17504 20.48-20.48S732.69248 385.29024 721.38752 385.29024z" fill="#d9d9d9" p-id="81043"></path><path d="M351.25248 499.17952l-40.96 0c-11.30496 0-20.48 9.17504-20.48 20.48s9.17504 20.48 20.48 20.48l40.96 0c11.30496 0 20.48-9.17504 20.48-20.48S362.55744 499.17952 351.25248 499.17952z" fill="#d9d9d9" p-id="81044"></path><path d="M721.38752 498.9952l-245.76 0c-11.30496 0-20.48 9.17504-20.48 20.48s9.17504 20.48 20.48 20.48l245.76 0c11.30496 0 20.48-9.17504 20.48-20.48S732.69248 498.9952 721.38752 498.9952z" fill="#d9d9d9" p-id="81045"></path><path d="M351.25248 614.912l-40.96 0c-11.30496 0-20.48 9.17504-20.48 20.48s9.17504 20.48 20.48 20.48l40.96 0c11.30496 0 20.48-9.17504 20.48-20.48S362.55744 614.912 351.25248 614.912z" fill="#d9d9d9" p-id="81046"></path><path d="M721.38752 620.52352l-245.76 0c-11.30496 0-20.48 9.17504-20.48 20.48s9.17504 20.48 20.48 20.48l245.76 0c11.30496 0 20.48-9.17504 20.48-20.48S732.69248 620.52352 721.38752 620.52352z" fill="#d9d9d9" p-id="81047"></path></svg>