<?xml version="1.0" standalone="no"?><!DOCTYPE svg PUBLIC "-//W3C//DTD SVG 1.1//EN" "http://www.w3.org/Graphics/SVG/1.1/DTD/svg11.dtd"><svg t="1717732372795" class="icon" viewBox="0 0 1024 1024" version="1.1" xmlns="http://www.w3.org/2000/svg" p-id="82928" xmlns:xlink="http://www.w3.org/1999/xlink" width="14" height="14"><path d="M0 384a128 128 0 0 1 128-128h768a128 128 0 0 1 128 128v128a128 128 0 0 1-128 128H128a128 128 0 0 1-128-128V384z m384 192h256V320H384v256z m576-64V384a64 64 0 0 0-64-64h-192v256h192a64 64 0 0 0 64-64z" p-id="82929" fill="#d9d9d9"></path></svg>