<?xml version="1.0" standalone="no"?><!DOCTYPE svg PUBLIC "-//W3C//DTD SVG 1.1//EN" "http://www.w3.org/Graphics/SVG/1.1/DTD/svg11.dtd"><svg t="1717743940220" class="icon" viewBox="0 0 1024 1024" version="1.1" xmlns="http://www.w3.org/2000/svg" p-id="37933" xmlns:xlink="http://www.w3.org/1999/xlink" width="14" height="14"><path d="M195.328 640l81.984-426.688H211.968l-134.4 25.856L64 314.176l109.76-20.288L107.2 640h88.128zM588.032 640l13.952-70.272H412.992v-3.648l38.72-25.472C600.064 444.224 640 392.128 640 318.784c0-75.712-52.608-105.472-138.24-105.472-43.072 0-79.872 5.504-114.752 15.808L371.84 301.824a355.84 355.84 0 0 1 106.496-16.384c44.352 0 64.64 12.8 64.64 46.72 0 62.976-81.152 117.568-250.432 229.12L277.312 640h310.72zM739.008 640c116.544 0 197.44-35.84 197.44-137.408 0-41.28-19.904-69.952-63.36-81.92l0.64-3.584C929.728 402.176 960 367.552 960 314.368c0-71.168-50.112-101.056-138.88-101.056-35.584 0-74.24 6.016-96 12.608l-11.52 67.456a337.28 337.28 0 0 1 85.184-13.12c45.888 0 72.448 12.544 72.448 44.224 0 45.44-45.888 63.36-112.256 63.36h-33.92l-12.032 65.088h33.856c70.016 0 98.368 15.552 98.368 52.032 0 47.168-41.024 65.088-101.44 65.088-30.144 0-60.928-3.584-91.712-10.112L640 632.256c27.2 5.376 64.64 7.744 99.008 7.744z" fill="#d9d9d9" fill-opacity=".6" p-id="37934"></path><path d="M248.512 832h527.04c19.392 0 35.136-19.136 35.136-42.688 0-23.552-15.744-42.624-35.2-42.624H248.576c-19.456 0-35.2 19.072-35.2 42.624 0 23.552 15.744 42.688 35.2 42.688z" fill="#d9d9d9" fill-opacity=".6" p-id="37935"></path></svg>