<?xml version="1.0" standalone="no"?><!DOCTYPE svg PUBLIC "-//W3C//DTD SVG 1.1//EN" "http://www.w3.org/Graphics/SVG/1.1/DTD/svg11.dtd"><svg t="1717742628491" class="icon" viewBox="0 0 1024 1024" version="1.1" xmlns="http://www.w3.org/2000/svg" p-id="12914" xmlns:xlink="http://www.w3.org/1999/xlink" width="14" height="14"><path d="M425.6 512c0 44.8 36.8 81.6 81.6 81.6s81.6-36.8 81.6-81.6-36.8-81.6-81.6-81.6-81.6 36.8-81.6 81.6z m484.8-113.6c-51.2 0-94.4 35.2-108.8 81.6h-116.8c-16-84.8-89.6-148.8-177.6-148.8-89.6 0-163.2 64-177.6 148.8H224c-14.4-48-57.6-81.6-108.8-81.6-64 0-115.2 51.2-115.2 113.6s51.2 113.6 113.6 113.6c51.2 0 94.4-35.2 108.8-81.6h105.6c16 84.8 89.6 148.8 177.6 148.8 89.6 0 163.2-64 177.6-148.8H800c14.4 48 57.6 81.6 108.8 81.6 62.4 0 113.6-51.2 113.6-113.6s-49.6-113.6-112-113.6zM115.2 561.6C86.4 561.6 64 539.2 64 512s22.4-49.6 49.6-49.6 49.6 22.4 49.6 49.6c1.6 27.2-20.8 49.6-48 49.6z m392 67.2c-64 0-116.8-52.8-116.8-116.8s52.8-116.8 116.8-116.8S624 448 624 512s-52.8 116.8-116.8 116.8z m403.2-67.2c-27.2 0-49.6-22.4-49.6-49.6s22.4-49.6 49.6-49.6S960 484.8 960 512c0 27.2-22.4 49.6-49.6 49.6z" fill="#d9d9d9" p-id="12915"></path></svg>