<?xml version="1.0" standalone="no"?><!DOCTYPE svg PUBLIC "-//W3C//DTD SVG 1.1//EN" "http://www.w3.org/Graphics/SVG/1.1/DTD/svg11.dtd"><svg t="1718354789351" class="icon" viewBox="0 0 1024 1024" version="1.1" xmlns="http://www.w3.org/2000/svg" p-id="69708" xmlns:xlink="http://www.w3.org/1999/xlink" width="14" height="14"><path d="M170.666667 213.333333a42.666667 42.666667 0 0 1 42.666666-42.666666h213.333334a42.666667 42.666667 0 0 1 42.666666 42.666666v213.333334a42.666667 42.666667 0 0 1-42.666666 42.666666H213.333333a42.666667 42.666667 0 0 1-42.666666-42.666666V213.333333z m64 192h170.666666v-170.666666h-170.666666v170.666666zM170.666667 597.333333a42.666667 42.666667 0 0 1 42.666666-42.666666h213.333334a42.666667 42.666667 0 0 1 42.666666 42.666666v213.333334a42.666667 42.666667 0 0 1-42.666666 42.666666H213.333333a42.666667 42.666667 0 0 1-42.666666-42.666666v-213.333334z m64 192h170.666666v-170.666666h-170.666666v170.666666zM832 256a21.333333 21.333333 0 0 0 21.333333-21.333333V213.333333a21.333333 21.333333 0 0 0-21.333333-21.333333h-213.333333a21.333333 21.333333 0 0 0-21.333334 21.333333v21.333334a21.333333 21.333333 0 0 0 21.333334 21.333333h213.333333zM853.333333 341.333333a21.333333 21.333333 0 0 1-21.333333 21.333334h-128A21.333333 21.333333 0 0 1 682.666667 341.333333v-21.333333a21.333333 21.333333 0 0 1 21.333333-21.333333h128a21.333333 21.333333 0 0 1 21.333333 21.333333V341.333333zM832 469.333333a21.333333 21.333333 0 0 0 21.333333-21.333333V426.666667a21.333333 21.333333 0 0 0-21.333333-21.333334h-256a21.333333 21.333333 0 0 0-21.333333 21.333334v21.333333a21.333333 21.333333 0 0 0 21.333333 21.333333h256zM832 640a21.333333 21.333333 0 0 0 21.333333-21.333333V597.333333a21.333333 21.333333 0 0 0-21.333333-21.333333h-170.666667a21.333333 21.333333 0 0 0-21.333333 21.333333v21.333334a21.333333 21.333333 0 0 0 21.333333 21.333333h170.666667zM853.333333 725.333333a21.333333 21.333333 0 0 1-21.333333 21.333334h-128a21.333333 21.333333 0 0 1-21.333333-21.333334v-21.333333a21.333333 21.333333 0 0 1 21.333333-21.333333h128a21.333333 21.333333 0 0 1 21.333333 21.333333v21.333333zM832 853.333333a21.333333 21.333333 0 0 0 21.333333-21.333333V810.666667a21.333333 21.333333 0 0 0-21.333333-21.333334h-256a21.333333 21.333333 0 0 0-21.333333 21.333334v21.333333a21.333333 21.333333 0 0 0 21.333333 21.333333h256z" fill="#d9d9d9" p-id="69709"></path></svg>