<?xml version="1.0" standalone="no"?><!DOCTYPE svg PUBLIC "-//W3C//DTD SVG 1.1//EN" "http://www.w3.org/Graphics/SVG/1.1/DTD/svg11.dtd"><svg t="1718354910010" class="icon" viewBox="0 0 1024 1024" version="1.1" xmlns="http://www.w3.org/2000/svg" p-id="71802" xmlns:xlink="http://www.w3.org/1999/xlink" width="14" height="14"><path d="M42.666667 981.333333h938.666666V42.666667H42.666667v938.666666zM0 42.666667a42.666667 42.666667 0 0 1 42.666667-42.666667h938.666666a42.666667 42.666667 0 0 1 42.666667 42.666667v938.666666a42.666667 42.666667 0 0 1-42.666667 42.666667H42.666667a42.666667 42.666667 0 0 1-42.666667-42.666667V42.666667z" fill="#d9d9d9" p-id="71803"></path><path d="M796.885333 855.338667a18.986667 18.986667 0 1 1-28.672-24.96l19.2-22.058667a18.986667 18.986667 0 1 1 28.629334 24.96l-19.2 22.058667zM708.48 838.485333c-10.538667 11.776-25.898667 15.232-34.346667 7.68-8.405333-7.509333-6.741333-23.168 3.797334-34.944l72.533333-81.322666c10.538667-11.818667 25.941333-15.274667 34.346667-7.722667 8.448 7.509333 6.741333 23.168-3.797334 34.986667l-72.533333 81.322666M182.485333 262.229333v43.648h112.170667V597.333333h50.688V305.877333h111.701333V262.229333z" fill="#d9d9d9" p-id="71804"></path></svg>