<?xml version="1.0" standalone="no"?><!DOCTYPE svg PUBLIC "-//W3C//DTD SVG 1.1//EN" "http://www.w3.org/Graphics/SVG/1.1/DTD/svg11.dtd"><svg t="1717742676725" class="icon" viewBox="0 0 2880 1024" version="1.1" xmlns="http://www.w3.org/2000/svg" p-id="14008" xmlns:xlink="http://www.w3.org/1999/xlink" width="39.375" height="14"><path d="M2688 32H192A160 160 0 0 0 32 192v640A160 160 0 0 0 192 992h2496a160 160 0 0 0 160-160V192A160 160 0 0 0 2688 32z m-2496 64h2496A96 96 0 0 1 2784 192v640a96 96 0 0 1-96 96H192A96 96 0 0 1 96 832V192A96 96 0 0 1 192 96z" fill="#d9d9d9" p-id="14009"></path><path d="M544 768a288 288 0 1 1 0-576 288 288 0 0 1 0 576z m0-44.288a243.712 243.712 0 1 0 0-487.424 243.712 243.712 0 0 0 0 487.424z m0-221.568h132.864a22.208 22.208 0 0 1 0 44.288H521.856a22.144 22.144 0 0 1-22.144-22.144V324.864a22.144 22.144 0 1 1 44.288 0v177.28z" fill="#d9d9d9" p-id="14010"></path></svg>