<?xml version="1.0" standalone="no"?><!DOCTYPE svg PUBLIC "-//W3C//DTD SVG 1.1//EN" "http://www.w3.org/Graphics/SVG/1.1/DTD/svg11.dtd"><svg t="1717742872274" class="icon" viewBox="0 0 1024 1024" version="1.1" xmlns="http://www.w3.org/2000/svg" p-id="20004" xmlns:xlink="http://www.w3.org/1999/xlink" width="14" height="14"><path d="M320 128H128c-35.2 0-64 28.8-64 64v640c0 35.2 28.8 64 64 64h192c35.2 0 64-28.8 64-64V192c0-35.2-28.8-64-64-64z m0 672c0 16-16 32-32 32H160c-16 0-32-16-32-32V224c0-16 16-32 32-32h128c16 0 32 16 32 32v576z m256-544h-64c-19.2 0-32 12.8-32 32s16 32 32 32h64c19.2 0 32-12.8 32-32s-16-32-32-32z m-64 448h-64c-19.2 0-32 12.8-32 32s16 32 32 32h64c19.2 0 32-12.8 32-32s-16-32-32-32zM896 128h-192c-35.2 0-64 28.8-64 64v640c0 35.2 28.8 64 64 64h192c35.2 0 64-28.8 64-64V192c0-35.2-28.8-64-64-64z m0 672c0 16-16 32-32 32h-128c-16 0-32-16-32-32V224c0-16 16-32 32-32h128c16 0 32 16 32 32v576z" p-id="20005" fill="#d9d9d9"></path></svg>