<?xml version="1.0" standalone="no"?><!DOCTYPE svg PUBLIC "-//W3C//DTD SVG 1.1//EN" "http://www.w3.org/Graphics/SVG/1.1/DTD/svg11.dtd"><svg t="1717742947190" class="icon" viewBox="0 0 1024 1024" version="1.1" xmlns="http://www.w3.org/2000/svg" p-id="21993" xmlns:xlink="http://www.w3.org/1999/xlink" width="14" height="14"><path d="M766.94 185.48l-71.29 72.9-71.32-72.9a32 32 0 0 0-45.25-0.5 32 32 0 0 0-0.5 45.25l94.2 96.29a32 32 0 0 0 45.75 0l94.17-96.3a32 32 0 0 0-0.51-45.25 32 32 0 0 0-45.25 0.51z" p-id="21994" fill="#d9d9d9"></path><path d="M896 448H128a64 64 0 0 1-64-64V128a64 64 0 0 1 64-64h768a64 64 0 0 1 64 64v256a64 64 0 0 1-64 64z m0-64V128H128v256zM256 704h-64a64 64 0 0 1-64-64v-64a64 64 0 0 1 64-64h64a64 64 0 0 1 64 64v64a64 64 0 0 1-64 64z m0-64v-64h-64v64zM384 544h320v128H384zM576 960h-64a64 64 0 0 1-64-64v-64a64 64 0 0 1 64-64h64a64 64 0 0 1 64 64v64a64 64 0 0 1-64 64z m0-64v-64h-64v64zM704 800h256v128H704zM384 896H192V768h64v64h128v64z" p-id="21995" fill="#d9d9d9"></path></svg>