<?xml version="1.0" standalone="no"?><!DOCTYPE svg PUBLIC "-//W3C//DTD SVG 1.1//EN" "http://www.w3.org/Graphics/SVG/1.1/DTD/svg11.dtd"><svg t="1718355276118" class="icon" viewBox="0 0 1024 1024" version="1.1" xmlns="http://www.w3.org/2000/svg" p-id="77219" xmlns:xlink="http://www.w3.org/1999/xlink" width="14" height="14"><path d="M938.666667 802.133333v38.4a12.8 12.8 0 0 1-12.8 12.8H98.133333a12.8 12.8 0 0 1-12.8-12.8v-38.4a12.8 12.8 0 0 1 12.8-12.8h827.733334a12.8 12.8 0 0 1 12.8 12.8zM746.666667 300.8v81.066667a12.8 12.8 0 0 1-12.8 12.8H290.133333a12.8 12.8 0 0 1-12.8-12.8v-81.066667a12.8 12.8 0 0 1 12.8-12.8h443.733334a12.8 12.8 0 0 1 12.8 12.8z" fill="#d9d9d9" p-id="77220"></path><path d="M565.333333 384v328.533333a12.8 12.8 0 0 1-12.8 12.8h-81.066666a12.8 12.8 0 0 1-12.8-12.8V384h106.666666z" fill="#d9d9d9" p-id="77221"></path></svg>