<?xml version="1.0" standalone="no"?><!DOCTYPE svg PUBLIC "-//W3C//DTD SVG 1.1//EN" "http://www.w3.org/Graphics/SVG/1.1/DTD/svg11.dtd"><svg t="1717743008501" class="icon" viewBox="0 0 1024 1024" version="1.1" xmlns="http://www.w3.org/2000/svg" p-id="24183" xmlns:xlink="http://www.w3.org/1999/xlink" width="14" height="14"><path d="M127.898 921.6c-15.463 0-27.956-12.493-27.956-27.955 0-15.463 12.493-27.955 27.956-27.955h761.958c15.36 0 27.955 12.492 27.955 27.955 0 15.36-12.493 27.955-27.955 27.955H127.898z m0-190.464c-15.463 0-27.956-12.493-27.956-27.955 0-15.463 12.493-27.955 27.956-27.955h761.958c15.36 0 27.955 12.492 27.955 27.955 0 15.462-12.493 27.955-27.955 27.955H127.898zM665.805 540.57c-15.36 0-27.955-12.493-27.955-27.956 0-15.36 12.492-27.955 27.955-27.955h224.051c15.36 0 27.955 12.493 27.955 27.955 0 15.463-12.493 27.956-27.955 27.956H665.805z m-106.906 19.353L330.138 102.4 141.312 527.36l-32.563 32.563h111.718l-54.681-36.454 36.966-86.835h173.466l28.364 98.61-24.576 24.577H558.9zM214.835 408.576l92.16-214.938 61.44 214.938h-153.6z m450.97-52.224c-18.842 0-34.202-15.36-34.202-34.202s15.36-34.201 34.202-34.201h224.051c18.842 0 34.202 15.36 34.202 34.201s-15.36 34.202-34.202 34.202H665.805z m0-196.813c-15.36 0-27.955-12.493-27.955-27.955 0-15.462 12.492-27.955 27.955-27.955h224.051c15.36 0 27.955 12.493 27.955 27.955 0 15.36-12.493 27.955-27.955 27.955H665.805z" fill="#d9d9d9" p-id="24184"></path></svg>