<?xml version="1.0" standalone="no"?><!DOCTYPE svg PUBLIC "-//W3C//DTD SVG 1.1//EN" "http://www.w3.org/Graphics/SVG/1.1/DTD/svg11.dtd"><svg t="1718355380871" class="icon" viewBox="0 0 1024 1024" version="1.1" xmlns="http://www.w3.org/2000/svg" p-id="79485" xmlns:xlink="http://www.w3.org/1999/xlink" width="14" height="14"><path d="M891.72 184.72H620.53c-27.44 0-54.28-7.94-77.3-22.87L428.15 87.21A156.614 156.614 0 0 0 342.93 62H132.28C93.46 62 62 93.46 62 132.28v759.44C62 930.53 93.46 962 132.28 962h759.44c38.81 0 70.28-31.47 70.28-70.28V255c0-38.81-31.47-70.28-70.28-70.28zM348.26 521.87l142.05-142.06c5.75-5.75 13.56-8.99 21.69-8.99s15.94 3.24 21.69 8.99l142.05 142.06c11.98 11.99 11.98 31.41 0 43.39-11.99 11.99-31.41 11.99-43.39 0l-89.67-89.68v274.77c0 16.94-13.74 30.68-30.68 30.68s-30.68-13.74-30.68-30.68V475.58l-89.67 89.68c-11.99 11.99-31.4 11.99-43.39 0-11.98-11.98-11.98-31.4 0-43.39z" p-id="79486" fill="#d9d9d9"></path></svg>